<svg xmlns="http://www.w3.org/2000/svg" width="980" height="620" viewBox="0 0 980 620"><defs><linearGradient id="g" x1="0" x2="1"><stop stop-color="#36d3ff"/><stop offset="1" stop-color="#66f0c8"/></linearGradient><filter id="s"><feDropShadow dx="0" dy="12" stdDeviation="12" flood-opacity=".24"/></filter></defs><rect width="980" height="620" rx="28" fill="#061422"/><text x="42" y="58" fill="#e9f3ff" font-family="Arial" font-size="30" font-weight="700">ERD Ringkas Database toko_pintar</text><text x="42" y="90" fill="#9fb3c8" font-family="Arial" font-size="15">Relasi utama untuk latihan SQL dari dasar sampai master.</text><g filter="url(#s)"><rect x="60" y="140" width="230" height="132" rx="16" fill="#0d1b2e" stroke="#203b5b"/><rect x="60" y="140" width="230" height="38" rx="16" fill="url(#g)"/><text x="74" y="165" fill="#061422" font-family="Arial" font-size="16" font-weight="700">pelanggan</text><text x="74" y="198" fill="#d7efff" font-family="Consolas" font-size="13">pelanggan_id PK</text><text x="74" y="220" fill="#d7efff" font-family="Consolas" font-size="13">nama</text><text x="74" y="242" fill="#d7efff" font-family="Consolas" font-size="13">kota</text><text x="74" y="264" fill="#d7efff" font-family="Consolas" font-size="13">level</text></g><g filter="url(#s)"><rect x="360" y="140" width="230" height="132" rx="16" fill="#0d1b2e" stroke="#203b5b"/><rect x="360" y="140" width="230" height="38" rx="16" fill="url(#g)"/><text x="374" y="165" fill="#061422" font-family="Arial" font-size="16" font-weight="700">pesanan</text><text x="374" y="198" fill="#d7efff" font-family="Consolas" font-size="13">pesanan_id PK</text><text x="374" y="220" fill="#d7efff" font-family="Consolas" font-size="13">pelanggan_id FK</text><text x="374" y="242" fill="#d7efff" font-family="Consolas" font-size="13">status</text><text x="374" y="264" fill="#d7efff" font-family="Consolas" font-size="13">total</text></g><g filter="url(#s)"><rect x="660" y="140" width="230" height="132" rx="16" fill="#0d1b2e" stroke="#203b5b"/><rect x="660" y="140" width="230" height="38" rx="16" fill="url(#g)"/><text x="674" y="165" fill="#061422" font-family="Arial" font-size="16" font-weight="700">detail_pesanan</text><text x="674" y="198" fill="#d7efff" font-family="Consolas" font-size="13">detail_id PK</text><text x="674" y="220" fill="#d7efff" font-family="Consolas" font-size="13">pesanan_id FK</text><text x="674" y="242" fill="#d7efff" font-family="Consolas" font-size="13">produk_id FK</text><text x="674" y="264" fill="#d7efff" font-family="Consolas" font-size="13">qty</text></g><g filter="url(#s)"><rect x="660" y="340" width="230" height="154" rx="16" fill="#0d1b2e" stroke="#203b5b"/><rect x="660" y="340" width="230" height="38" rx="16" fill="url(#g)"/><text x="674" y="365" fill="#061422" font-family="Arial" font-size="16" font-weight="700">produk</text><text x="674" y="398" fill="#d7efff" font-family="Consolas" font-size="13">produk_id PK</text><text x="674" y="420" fill="#d7efff" font-family="Consolas" font-size="13">kategori_id FK</text><text x="674" y="442" fill="#d7efff" font-family="Consolas" font-size="13">supplier_id FK</text><text x="674" y="464" fill="#d7efff" font-family="Consolas" font-size="13">harga</text><text x="674" y="486" fill="#d7efff" font-family="Consolas" font-size="13">stok</text></g><g filter="url(#s)"><rect x="360" y="340" width="230" height="88" rx="16" fill="#0d1b2e" stroke="#203b5b"/><rect x="360" y="340" width="230" height="38" rx="16" fill="url(#g)"/><text x="374" y="365" fill="#061422" font-family="Arial" font-size="16" font-weight="700">kategori</text><text x="374" y="398" fill="#d7efff" font-family="Consolas" font-size="13">kategori_id PK</text><text x="374" y="420" fill="#d7efff" font-family="Consolas" font-size="13">nama_kategori</text></g><g filter="url(#s)"><rect x="60" y="340" width="230" height="110" rx="16" fill="#0d1b2e" stroke="#203b5b"/><rect x="60" y="340" width="230" height="38" rx="16" fill="url(#g)"/><text x="74" y="365" fill="#061422" font-family="Arial" font-size="16" font-weight="700">pembayaran</text><text x="74" y="398" fill="#d7efff" font-family="Consolas" font-size="13">pembayaran_id PK</text><text x="74" y="420" fill="#d7efff" font-family="Consolas" font-size="13">pesanan_id FK</text><text x="74" y="442" fill="#d7efff" font-family="Consolas" font-size="13">status_bayar</text></g><g filter="url(#s)"><rect x="60" y="470" width="230" height="110" rx="16" fill="#0d1b2e" stroke="#203b5b"/><rect x="60" y="470" width="230" height="38" rx="16" fill="url(#g)"/><text x="74" y="495" fill="#061422" font-family="Arial" font-size="16" font-weight="700">pengiriman</text><text x="74" y="528" fill="#d7efff" font-family="Consolas" font-size="13">pengiriman_id PK</text><text x="74" y="550" fill="#d7efff" font-family="Consolas" font-size="13">pesanan_id FK</text><text x="74" y="572" fill="#d7efff" font-family="Consolas" font-size="13">status_kirim</text></g><g filter="url(#s)"><rect x="360" y="470" width="230" height="88" rx="16" fill="#0d1b2e" stroke="#203b5b"/><rect x="360" y="470" width="230" height="38" rx="16" fill="url(#g)"/><text x="374" y="495" fill="#061422" font-family="Arial" font-size="16" font-weight="700">supplier</text><text x="374" y="528" fill="#d7efff" font-family="Consolas" font-size="13">supplier_id PK</text><text x="374" y="550" fill="#d7efff" font-family="Consolas" font-size="13">nama_supplier</text></g><g filter="url(#s)"><rect x="660" y="470" width="230" height="132" rx="16" fill="#0d1b2e" stroke="#203b5b"/><rect x="660" y="470" width="230" height="38" rx="16" fill="url(#g)"/><text x="674" y="495" fill="#061422" font-family="Arial" font-size="16" font-weight="700">stok_mutasi</text><text x="674" y="528" fill="#d7efff" font-family="Consolas" font-size="13">mutasi_id PK</text><text x="674" y="550" fill="#d7efff" font-family="Consolas" font-size="13">produk_id FK</text><text x="674" y="572" fill="#d7efff" font-family="Consolas" font-size="13">jenis</text><text x="674" y="594" fill="#d7efff" font-family="Consolas" font-size="13">qty</text></g><path d="M 290 185 C 330 185, 320 185, 360 185" fill="none" stroke="#36d3ff" stroke-width="3" stroke-dasharray="6 6" opacity=".75"/><path d="M 590 185 C 630 185, 620 185, 660 185" fill="none" stroke="#36d3ff" stroke-width="3" stroke-dasharray="6 6" opacity=".75"/><path d="M 775 270 C 775 300, 775 315, 775 340" fill="none" stroke="#36d3ff" stroke-width="3" stroke-dasharray="6 6" opacity=".75"/><path d="M 660 380 C 590 380, 590 385, 590 385 C 520 385, 510 385, 590 385" fill="none" stroke="#36d3ff" stroke-width="3" opacity="0"/><path d="M 660 385 C 590 385, 590 385, 590 385 C 520 385, 520 385, 590 385" fill="none" stroke="#36d3ff" stroke-width="3" opacity="0"/><path d="M 660 385 C 590 385, 590 385, 590 385 C 520 385, 520 385, 590 385" fill="none" stroke="#36d3ff" stroke-width="3" opacity="0"/><path d="M 590 385 C 625 385, 625 385, 660 385" fill="none" stroke="#36d3ff" stroke-width="3" stroke-dasharray="6 6" opacity=".75"/><path d="M 590 515 C 620 515, 630 430, 660 430" fill="none" stroke="#36d3ff" stroke-width="3" stroke-dasharray="6 6" opacity=".75"/><path d="M 290 365 C 320 310, 330 210, 360 185" fill="none" stroke="#36d3ff" stroke-width="3" stroke-dasharray="6 6" opacity=".75"/><path d="M 290 505 C 320 420, 330 225, 360 185" fill="none" stroke="#36d3ff" stroke-width="3" stroke-dasharray="6 6" opacity=".75"/><path d="M 775 470 C 775 430, 775 415, 775 414" fill="none" stroke="#36d3ff" stroke-width="3" stroke-dasharray="6 6" opacity=".75"/></svg>