<svg xmlns="http://www.w3.org/2000/svg" width="1200" height="320" viewBox="0 0 1200 320"><rect width="1200" height="320" rx="28" fill="#061422"/><defs><linearGradient id="g" x1="0" x2="1"><stop stop-color="#36d3ff"/><stop offset="1" stop-color="#66f0c8"/></linearGradient></defs><text x="42" y="54" fill="#e9f3ff" font-family="Arial" font-size="28" font-weight="700">Alur Membaca Query SQL</text><g font-family="Arial" font-size="18" font-weight="700"><rect x="40" y="105" width="150" height="92" rx="18" fill="#0d1b2e" stroke="#203b5b"/><text x="60" y="145" fill="#36d3ff">1</text><text x="60" y="174" fill="#e9f3ff">Tujuan</text><path d="M 190 151 L 218 151" stroke="url(#g)" stroke-width="4"/><rect x="225" y="105" width="150" height="92" rx="18" fill="#0d1b2e" stroke="#203b5b"/><text x="245" y="145" fill="#36d3ff">2</text><text x="245" y="174" fill="#e9f3ff">FROM/JOIN</text><path d="M 375 151 L 403 151" stroke="url(#g)" stroke-width="4"/><rect x="410" y="105" width="150" height="92" rx="18" fill="#0d1b2e" stroke="#203b5b"/><text x="430" y="145" fill="#36d3ff">3</text><text x="430" y="174" fill="#e9f3ff">WHERE</text><path d="M 560 151 L 588 151" stroke="url(#g)" stroke-width="4"/><rect x="595" y="105" width="150" height="92" rx="18" fill="#0d1b2e" stroke="#203b5b"/><text x="615" y="145" fill="#36d3ff">4</text><text x="615" y="174" fill="#e9f3ff">GROUP BY</text><path d="M 745 151 L 773 151" stroke="url(#g)" stroke-width="4"/><rect x="780" y="105" width="150" height="92" rx="18" fill="#0d1b2e" stroke="#203b5b"/><text x="800" y="145" fill="#36d3ff">5</text><text x="800" y="174" fill="#e9f3ff">SELECT</text><path d="M 930 151 L 958 151" stroke="url(#g)" stroke-width="4"/><rect x="965" y="105" width="150" height="92" rx="18" fill="#0d1b2e" stroke="#203b5b"/><text x="985" y="145" fill="#36d3ff">6</text><text x="985" y="174" fill="#e9f3ff">ORDER/LIMIT</text></g></svg>